<svg viewBox="0 0 1024 1024" version="1.1" xmlns="http://www.w3.org/2000/svg" width="36" height="36" fill="yellow"><path d="M684.985 115.574c-23.905-14.535-48.659-26.578-73.95-36.201-4.805-1.829-9.087 3.624-6.231 7.899 100.574 150.581 108.599 352.615 4.264 514.531C504.732 763.72 317.435 839.894 138.751 810.527c-5.102-0.839-8.249 5.337-4.577 8.977 21.932 21.744 46.443 41.549 73.442 58.947 204.343 131.674 475.25 76.932 612.979-121.028 147.845-212.498 85.58-507.356-135.61-641.849zM233.777 553.493l-29.452-4.171-20.132 21.898-5.135-29.3-27.047-12.38 26.278-13.937 3.417-29.549 21.375 20.685 29.159-5.882-13.068 26.722zM298.007 229.067l-34.981-30.794-45.199 11.359 18.477-42.784-24.77-39.476 46.4 4.351 29.889-35.757 10.2 45.474 43.243 17.377-40.096 23.753zM314.085 411.783l-16.351-5.695-13.96 10.242 0.363-17.311-14.054-10.113 16.575-5.003 5.275-16.491 9.881 14.217 17.314-0.079-10.469 13.791z"></path></svg>